<?xml version="1.0" standalone="no"?>
<svg xmlns:xlink="http://www.w3.org/1999/xlink" id="wave" style="transform:rotate(0deg); transition: 0.3s" viewBox="0 0 1440 130" version="1.1" xmlns="http://www.w3.org/2000/svg"><defs><linearGradient id="sw-gradient-0" x1="0" x2="0" y1="1" y2="0"><stop stop-color="rgba(23.529, 86.838, 9.101, 1)" offset="0%"/><stop stop-color="rgba(1.322, 91.392, 2.911, 1)" offset="100%"/></linearGradient></defs><path style="transform:translate(0, 0px); opacity:1" fill="url(#sw-gradient-0)" d="M0,104L24,91C48,78,96,52,144,54.2C192,56,240,87,288,88.8C336,91,384,65,432,62.8C480,61,528,82,576,86.7C624,91,672,78,720,62.8C768,48,816,30,864,32.5C912,35,960,56,1008,56.3C1056,56,1104,35,1152,28.2C1200,22,1248,30,1296,36.8C1344,43,1392,48,1440,56.3C1488,65,1536,78,1584,88.8C1632,100,1680,108,1728,97.5C1776,87,1824,56,1872,45.5C1920,35,1968,43,2016,45.5C2064,48,2112,43,2160,49.8C2208,56,2256,74,2304,75.8C2352,78,2400,65,2448,62.8C2496,61,2544,69,2592,73.7C2640,78,2688,78,2736,73.7C2784,69,2832,61,2880,62.8C2928,65,2976,78,3024,88.8C3072,100,3120,108,3168,93.2C3216,78,3264,39,3312,36.8C3360,35,3408,69,3432,86.7L3456,104L3456,130L3432,130C3408,130,3360,130,3312,130C3264,130,3216,130,3168,130C3120,130,3072,130,3024,130C2976,130,2928,130,2880,130C2832,130,2784,130,2736,130C2688,130,2640,130,2592,130C2544,130,2496,130,2448,130C2400,130,2352,130,2304,130C2256,130,2208,130,2160,130C2112,130,2064,130,2016,130C1968,130,1920,130,1872,130C1824,130,1776,130,1728,130C1680,130,1632,130,1584,130C1536,130,1488,130,1440,130C1392,130,1344,130,1296,130C1248,130,1200,130,1152,130C1104,130,1056,130,1008,130C960,130,912,130,864,130C816,130,768,130,720,130C672,130,624,130,576,130C528,130,480,130,432,130C384,130,336,130,288,130C240,130,192,130,144,130C96,130,48,130,24,130L0,130Z"/></svg>